<?xml version="1.0" encoding="utf-8"?>
<!-- Generator: Adobe Illustrator 22.1.0, SVG Export Plug-In . SVG Version: 6.00 Build 0)  -->
<svg version="1.1" id="Layer_1" xmlns="http://www.w3.org/2000/svg" xmlns:xlink="http://www.w3.org/1999/xlink" x="0px" y="0px"
	 viewBox="0 0 337.9 101.3" style="enable-background:new 0 0 337.9 101.3;" xml:space="preserve">
<g>
	<g>
		<path d="M51.2,90.6c-0.4-1.4-0.6-3.2-0.4-5.3c0.1-1.8,0.5-4,1.2-6.8c0.7-2.7,2-6,3.8-9.8c-3.4,3-6.7,5.8-9.9,8.4
			c-3.2,2.6-6.1,5-8.8,7c-2.7,2.1-5,3.8-6.9,5.2c-1.9,1.4-3.3,2.4-4.1,2.9c-0.1,0.1-0.2,0.2-0.2,0.2c-0.1,0-0.1,0.1-0.2,0.1
			c-0.1,0.1-0.2,0.1-0.2,0.1c-0.5,0.2-1,0.1-1.5-0.1c-0.4-0.2-0.8-0.5-1.1-0.8c-0.4-0.4-0.7-0.8-1.1-1.3c-1.2-2.9-1.2-6.6-0.2-11.2
			c0.5-1.9,1.2-4.2,2.2-6.8c1-2.6,2.4-5.4,4.2-8.6c1.8-3.2,4.1-6.7,6.8-10.5c2.7-3.9,6-8.1,9.9-12.6c4-4.7,7.3-8.7,9.9-11.9
			c2.5-3.3,4.5-6,6-8.1c1.5-2.2,2.4-3.8,3-5.1c0.5-1.2,0.8-2.1,0.8-2.8c-0.1-0.5-0.3-0.9-0.7-1.2c-0.4-0.2-0.9-0.3-1.3,0
			c-1,0.5-2.8,1.4-5.5,2.8s-5.8,3.2-9.3,5.4c-3.5,2.2-7.2,4.7-11.1,7.6s-7.6,6-11,9.4s-6.4,7-8.9,10.8s-4.1,7.7-4.8,11.7
			c-0.2,1.3-0.3,2.4-0.2,3.4c0.1,0.9,0.4,1.6,0.8,2.3c0.4,0.7,1.1,1.1,2.1,1.1c0.2,0,0.4-0.1,0.6-0.2s0.4-0.2,0.6-0.3
			c0.2-0.1,0.4-0.3,0.6-0.6c0.1-0.1,0.1-0.1,0.2-0.1s0.2,0.1,0.2,0.2c0.1,0.4,0.1,1,0.1,1.6s-0.1,1.2-0.4,1.8s-0.8,1-1.6,1.3
			c-0.7,0.3-1.8,0.4-3.2,0.2c-1.8-0.3-3.2-1.1-4.3-2.2C6.8,67.3,6.4,66.7,6,66c-0.4-0.7-0.6-1.5-0.8-2.5c-0.2-1-0.2-2.1-0.1-3.4
			s0.4-2.8,1-4.5c1.1-3.3,3.2-7,6.4-11.2c3.2-4.2,7.3-8.5,12.3-12.9S35.5,22.8,42,18.6c6.5-4.2,13.6-8,21.3-11.2
			C64,7.1,64.8,7,65.6,7.3c0.6,0.2,1.3,0.6,2,1.1c0.8,0.5,1.3,1.3,1.8,2.3c0.4,1,0.6,2.3,0.4,4c-0.2,1.6-0.9,3.6-2.1,6.1
			c-0.8,1.6-2,3.5-3.6,5.8s-3.5,4.9-5.6,7.8s-4.4,5.9-6.9,9.2c-2.5,3.2-4.9,6.5-7.3,9.9c-2.4,3.3-4.7,6.7-7,10
			c-2.2,3.3-4.1,6.5-5.8,9.5c-1.6,3-2.9,5.8-3.9,8.3c-0.9,2.5-1.3,4.7-1.2,6.5c1.6-1.2,3.8-3.1,6.7-5.6c2.9-2.5,6.1-5.4,9.8-8.8
			c3.6-3.3,7.4-7,11.5-11c4-4,7.9-8,11.7-12.2c3.8-4.2,7.3-8.3,10.5-12.3c3.2-4.1,5.8-7.9,7.9-11.5c0.3-0.4,0.6-0.7,1.1-0.8
			c0.5-0.1,0.9,0,1.4,0.2c0.7,0.5,1.3,1.3,1.9,2.3s0.5,2.3-0.1,3.9c-0.9,2.3-2.3,4.6-4.1,6.9c-1.8,2.3-3.9,4.9-6.3,7.6
			c-3.1,3.9-6,7.8-8.8,11.9c-2.8,4-5.2,7.8-7.3,11.5c-2.1,3.6-3.7,7-4.9,10.1c-1.2,3.1-1.6,5.7-1.4,7.8c1.6-1.3,4-3.3,7.2-6
			s6.7-5.9,10.6-9.5s8-7.5,12.3-11.8c4.3-4.2,8.3-8.5,12.2-12.8c3.9-4.3,7.4-8.6,10.4-12.7c3.1-4.2,5.4-8,7-11.5s2.1-6.5,1.7-8.9
			c-0.4-2.5-2.1-4.2-5.2-5.3c-0.4-0.1-0.9-0.1-1.3,0s-0.8,0.2-1.2,0.4c-0.4,0.2-0.8,0.5-1.1,0.9c-0.3,0.3-0.6,0.4-1,0.2
			c-0.4-0.2-0.6-0.5-0.4-0.9c0.1-0.2,0.1-0.4,0.2-0.6s0.1-0.4,0.2-0.6c0.4-0.8,1.2-1.5,2.4-1.9c1.2-0.5,2.7-0.5,4.7-0.2
			c1.5,0.3,2.8,0.9,4.1,1.8c1.3,0.9,2.3,2.2,3,3.8c0.7,1.6,1.1,3.5,1.1,5.7s-0.5,4.8-1.5,7.7c-1,2.9-2.6,6.1-4.7,9.6
			c-2.2,3.5-5.1,7.3-8.7,11.4c-3,3.3-6.2,6.7-9.7,10.1s-7,6.7-10.6,9.9c-3.6,3.2-7.1,6.2-10.5,9s-6.6,5.4-9.4,7.6
			c-2.9,2.2-5.3,4.1-7.4,5.7c-2.1,1.5-3.5,2.6-4.4,3.1c-0.2,0.2-0.4,0.3-0.6,0.4c-0.1,0.1-0.2,0.1-0.2,0.1c-0.5,0.2-1,0.1-1.5-0.1
			c-0.4-0.2-0.8-0.5-1.1-0.8C51.9,91.5,51.6,91.1,51.2,90.6z"/>
		<path d="M96.1,76.1c-0.4-1.6-0.3-3.3,0.3-5.1c0.6-1.8,1.4-3.3,2.4-4.7c1.1-1.7,2.4-3.3,4-4.9c1.9-1.8,3.8-3.2,5.5-4.2
			s3.2-1.8,4.4-2.3c1.5-0.6,2.8-1,4.1-1.2c2-0.3,3.7-0.1,4.9,0.4c1.2,0.5,2.1,1.1,2.8,1.8c0.2,0.3,0.3,0.6,0.4,1
			c0.1,0.3,0.1,0.6,0,1.1c-0.1,0.4-0.3,0.9-0.6,1.4c-1.7,2.2-3.7,4.1-5.9,5.8c-1.9,1.5-4.2,2.9-6.9,4.2c-2.7,1.3-5.7,2-9.1,2.2
			c-0.9,1.2-1.5,2.3-1.8,3.5c-0.4,1.1-0.1,2.1,0.8,2.8c0.7,0.6,1.5,1,2.4,1.2s1.8,0.3,2.8,0.2c0.9-0.1,1.9-0.2,2.8-0.5
			s1.9-0.6,2.8-1c2.1-0.9,4.3-2,6.5-3.6c1-0.6,2-1.3,3-2.1c1-0.7,2-1.5,2.9-2.2s1.8-1.4,2.5-2.1c0.8-0.7,1.4-1.3,1.9-1.7
			c0.4-0.4,0.8-0.4,1.1,0.1c0.1,0.3,0.2,0.5,0.3,0.8c0.1,0.3,0.1,0.6,0,0.9c-0.1,0.2-0.2,0.4-0.2,0.4c-0.3,0.2-0.7,0.6-1.4,1.3
			c-0.6,0.6-1.5,1.3-2.4,2.1c-1,0.8-2.1,1.7-3.2,2.6c-1.2,0.9-2.4,1.8-3.6,2.5c-3.2,2.1-6.1,3.4-8.5,4s-4.5,0.9-6.1,0.8
			c-1.9-0.1-3.6-0.5-4.9-1.2C97.7,79.2,96.5,77.8,96.1,76.1z M107.3,65.9c-0.3,0.3-0.7,0.6-1.1,1c-0.3,0.3-0.7,0.6-1.1,1.1
			c-0.4,0.4-0.8,0.9-1.2,1.3c0.9-0.2,2-0.4,3.4-0.8s2.9-1,4.6-1.8s3.4-1.8,5.2-3.2c1.8-1.3,3.5-3,5.1-5.1c0.5-0.6,0.6-1,0.4-1.1
			c-0.2-0.2-0.6-0.2-1.1-0.1s-1.1,0.3-1.7,0.5s-1,0.4-1.2,0.5c-2.5,1.4-4.6,2.8-6.5,4C110.4,63.4,108.7,64.7,107.3,65.9z"/>
		<path d="M127.6,76.1c-0.4-1.6-0.3-3.3,0.3-5.1c0.6-1.8,1.4-3.3,2.4-4.7c1.1-1.7,2.4-3.3,4-4.9c1.9-1.8,3.8-3.2,5.5-4.2
			s3.2-1.8,4.4-2.3c1.5-0.6,2.8-1,4.1-1.2c2-0.3,3.7-0.1,4.9,0.4c1.2,0.5,2.1,1.1,2.8,1.8c0.2,0.3,0.3,0.6,0.4,1
			c0.1,0.3,0.1,0.6,0,1.1c-0.1,0.4-0.3,0.9-0.6,1.4c-1.7,2.2-3.7,4.1-5.9,5.8c-1.9,1.5-4.2,2.9-6.9,4.2c-2.7,1.3-5.7,2-9.1,2.2
			c-0.9,1.2-1.5,2.3-1.8,3.5c-0.4,1.1-0.1,2.1,0.8,2.8c0.7,0.6,1.5,1,2.4,1.2s1.8,0.3,2.8,0.2c0.9-0.1,1.9-0.2,2.8-0.5
			s1.9-0.6,2.8-1c2.1-0.9,4.3-2,6.5-3.6c1-0.6,2-1.3,3-2.1c1-0.7,2-1.5,2.9-2.2s1.8-1.4,2.5-2.1c0.8-0.7,1.4-1.3,1.9-1.7
			c0.4-0.4,0.8-0.4,1.1,0.1c0.1,0.3,0.2,0.5,0.3,0.8c0.1,0.3,0.1,0.6,0,0.9c-0.1,0.2-0.2,0.4-0.2,0.4c-0.3,0.2-0.7,0.6-1.4,1.3
			c-0.6,0.6-1.5,1.3-2.4,2.1c-1,0.8-2.1,1.7-3.2,2.6c-1.2,0.9-2.4,1.8-3.6,2.5c-3.2,2.1-6.1,3.4-8.5,4s-4.5,0.9-6.1,0.8
			c-1.9-0.1-3.6-0.5-4.9-1.2C129.2,79.2,128.1,77.8,127.6,76.1z M138.9,65.9c-0.3,0.3-0.7,0.6-1.1,1c-0.3,0.3-0.7,0.6-1.1,1.1
			c-0.4,0.4-0.8,0.9-1.2,1.3c0.9-0.2,2-0.4,3.4-0.8s2.9-1,4.6-1.8s3.4-1.8,5.2-3.2c1.8-1.3,3.5-3,5.1-5.1c0.5-0.6,0.6-1,0.4-1.1
			c-0.2-0.2-0.6-0.2-1.1-0.1s-1.1,0.3-1.7,0.5s-1,0.4-1.2,0.5c-2.5,1.4-4.6,2.8-6.5,4C141.9,63.4,140.3,64.7,138.9,65.9z"/>
		<path d="M159.8,78.9c-1-0.8-1.5-1.8-1.7-3s0.1-2.6,0.6-4.2c0.6-1.6,1.6-3.2,2.9-5s3-3.5,4.9-5.3s3.8-3.2,5.5-4.2s3.2-1.8,4.5-2.3
			c1.5-0.6,2.8-1,4.1-1.2c2-0.3,3.7-0.1,4.9,0.4c1.2,0.5,2.1,1.2,2.7,1.9c1.8-2.1,3.7-4.3,5.8-6.6c2.1-2.3,4.3-4.6,6.7-7
			c2.3-2.3,4.8-4.6,7.3-6.9s5.1-4.4,7.8-6.5c0.7-0.5,1.5-0.9,2.3-1c0.9-0.1,1.7,0,2.5,0.4l0.5,0.2c0.6,0.4,1,0.9,1.1,1.7
			c0.1,0.8-0.2,1.4-0.8,1.9c-0.9,0.7-2,1.6-3.4,2.8c-1.4,1.2-3,2.5-4.7,4s-3.5,3.1-5.5,4.9c-1.9,1.8-3.8,3.5-5.8,5.4
			c-3,2.9-6,5.8-8.9,8.8s-5.4,5.8-7.5,8.4s-3.8,4.8-4.9,6.6c-1.1,1.8-1.4,3-0.8,3.5c0.4,0.3,1.3,0.1,2.7-0.6c1.4-0.7,3-1.7,4.7-2.9
			c1.7-1.2,3.4-2.5,5.1-3.8s2.9-2.4,3.7-3.4c0.1-0.2,0.3-0.3,0.5-0.3s0.4,0.1,0.5,0.4s0.2,0.5,0.3,0.8c0.1,0.3,0.1,0.6,0,0.9
			c-0.1,0.2-0.2,0.4-0.2,0.4c-0.3,0.3-0.8,0.8-1.7,1.5c-0.9,0.8-1.9,1.6-3.1,2.6s-2.5,2-4,3c-1.4,1.1-2.9,2-4.3,2.9s-2.8,1.5-4,2
			c-1.3,0.5-2.4,0.6-3.3,0.5c-1.2-0.3-2.1-0.8-2.7-1.5c-0.5-0.6-0.8-1.4-0.8-2.5s0.6-2.5,1.9-4.2c0-0.1,0-0.1,0.1-0.2l0.3-0.5
			c-1.6,1.2-3.3,2.4-4.9,3.4c-1.6,1.1-3.2,1.9-4.7,2.6s-2.8,1.2-3.9,1.4C161.2,79.4,160.4,79.3,159.8,78.9z M182.5,58.1
			c-3.7,2.1-6.8,4-9.1,5.9c-2.4,1.9-4.2,3.6-5.6,5.1c-1.6,1.7-2.8,3.3-3.6,4.9c0,0.5,0.3,0.8,0.9,0.7c0.6-0.1,1.4-0.3,2.3-0.8
			s2-1.1,3.3-1.9c1.2-0.8,2.5-1.6,3.8-2.5s2.5-1.8,3.8-2.8c1.2-1,2.4-1.9,3.4-2.7c0.8-1,1.7-2.1,2.6-3.3c0.9-1.2,2-2.4,3-3.6
			c-0.6-0.1-1.2-0.1-1.7,0c-0.6,0.1-1.1,0.2-1.5,0.3C183.4,57.7,182.9,57.9,182.5,58.1z"/>
		<path d="M233.6,80.7L224,68.9l-5.3,5.7v6.1h-0.6V58.3h0.6v15.3l14.1-15.3h0.9l-9.3,10l10,12.3L233.6,80.7L233.6,80.7z"/>
		<path d="M254.8,73.9h-13.6l-3.1,6.8h-0.8l10.2-22.4h0.7l10.4,22.4h-0.7L254.8,73.9z M254.4,73.2L247.9,59l-6.4,14.2H254.4z"/>
		<path d="M273.3,72.7l5.8,7.9h-0.8l-5.7-7.8c-0.6,0.1-1.3,0.1-2,0.1h-6.9v7.7H263V58.2h7.6c5.4,0,8.5,2.7,8.5,7.3
			C279.1,69.4,277,71.9,273.3,72.7z M270.6,72.4c5,0,7.9-2.5,7.9-6.8c0-4.2-2.9-6.6-7.9-6.6h-6.9v13.4H270.6z"/>
		<path d="M286.8,58.3l9.8,18.5l9.7-18.5h1.1v22.4h-0.6V58.9l-10.1,19.3h-0.1l-10.2-19.3v21.8h-0.6V58.3H286.8z"/>
		<path d="M329.2,73.9h-13.6l-3.1,6.8h-0.8l10.2-22.4h0.7L333,80.7h-0.7L329.2,73.9z M328.9,73.2L322.4,59L316,73.2H328.9z"/>
	</g>
</g>
</svg>
